<svg width="20" height="20" viewBox="0 0 20 20" fill="none" xmlns="http://www.w3.org/2000/svg">
<g>
<path fill-rule="evenodd" clip-rule="evenodd" d="M3 19H21V22H3V19Z"/>
<path d="M8.7 17.6997H4L7.3 14.3997L6.6 13.5997L11.2 8.99966L15.2 13.0997L11.2 17.2997C11 17.4997 10.6 17.4997 10.4 17.2997L9.8 16.5997L8.7 17.6997V17.6997ZM13.7 10.1997L12 8.39966L15 5.49966C15.3623 5.1898 15.8233 5.01953 16.3 5.01953C16.7767 5.01953 17.2377 5.1898 17.6 5.49966L19 6.99966C19.7 7.69966 19.7 8.99966 19 9.69966L16.1 12.5997L14.3 10.7997L13.8 10.1997"/>
<path d="M4.31415 5.05655L2.87195 9.92287H2L3.81684 4.30849H4.37382L4.31415 5.05655ZM5.52095 9.92287L4.07544 5.05655L4.01244 4.30849H4.57275L6.39621 9.92287H5.52095ZM5.45133 7.84061V8.60797H2.82554V7.84061H5.45133ZM6.86037 4H7.65938V9.03212L7.58313 9.92287H6.86037V4ZM10 7.79819V7.87918C10 8.18765 9.97024 8.47172 9.91049 8.73136C9.85311 8.98843 9.76462 9.21207 9.64534 9.4023C9.5281 9.59253 9.38223 9.74035 9.20762 9.84575C9.03526 9.94854 8.83519 10 8.60758 10C8.38435 10 8.18984 9.95117 8.02408 9.85347C7.8583 9.75578 7.71906 9.61696 7.60634 9.43701C7.49582 9.25706 7.40631 9.0424 7.33778 8.79305C7.26926 8.5437 7.22065 8.26863 7.19191 7.96786V7.70951C7.22065 7.40616 7.26926 7.13111 7.33778 6.88432C7.40631 6.63495 7.49582 6.42031 7.60634 6.24036C7.71906 6.05784 7.8572 5.91773 8.02076 5.82005C8.18653 5.72236 8.37992 5.67351 8.60095 5.67351C8.83078 5.67351 9.033 5.72494 9.20762 5.82776C9.38449 5.93059 9.5315 6.07711 9.64862 6.26735C9.76575 6.455 9.85311 6.67866 9.91049 6.9383C9.97024 7.19794 10 7.48457 10 7.79819ZM9.20105 7.87918V7.79819C9.20105 7.61053 9.18781 7.43445 9.16122 7.26992C9.13474 7.10282 9.09049 6.95629 9.02859 6.83033C8.96895 6.70437 8.88713 6.60539 8.78325 6.53341C8.68162 6.45886 8.55454 6.42159 8.40203 6.42159C8.26057 6.42159 8.13901 6.44987 8.03734 6.50643C7.93566 6.56298 7.85057 6.6401 7.78205 6.73779C7.71353 6.83548 7.65938 6.94858 7.61959 7.07712C7.58202 7.20566 7.5566 7.34447 7.54334 7.49357V8.19151C7.56323 8.38431 7.60523 8.56169 7.66933 8.72365C7.73563 8.88303 7.82847 9.01156 7.94781 9.10925C8.06717 9.20436 8.22079 9.25191 8.40866 9.25191C8.55675 9.25191 8.68162 9.21722 8.78325 9.1478C8.88498 9.0784 8.96567 8.982 9.02531 8.85861C9.08721 8.73264 9.13146 8.58612 9.15794 8.41901C9.18668 8.25192 9.20105 8.07197 9.20105 7.87918Z"/>
</g>
<defs>
<clipPath id="clip0_51828_368910">
<rect width="20" height="20" fill="white"/>
</clipPath>
</defs>
</svg>
